Coordinates
version=1
nRows=21
nColumns=12
inDegrees=yes

Units are S.I. units (second, meters, Newtons, ...)
Angles are in degrees

endheader
time	SC_y	SC_z	SC_x	AC_y	AC_z	AC_x	GH_y	GH_z	GH_yy	EL_x	PS_y
       0.0              -28.37          37.11          69.11          37.25         -10.77          0.678          163.0          69.23         -47.04          108.3          57.65
   0.04444              -28.37          37.11           69.1          37.25         -10.77         0.6769          163.0          69.23         -47.04          108.3          57.66
   0.08888              -28.37          37.11           69.1          37.25         -10.77         0.6757          163.0          69.23         -47.04          108.3          57.67
    0.1333              -28.36          37.11          69.09          37.25         -10.77         0.6745          162.9          69.22         -47.04          108.3          57.68
    0.1778              -28.36          37.11          69.08          37.26         -10.77         0.6732          162.9          69.22         -47.04          108.3          57.69
    0.2222              -28.36           37.1          69.08          37.26         -10.77         0.6718          162.9          69.21         -47.05          108.2           57.7
    0.2666              -28.36           37.1          69.07          37.26         -10.77         0.6703          162.8          69.21         -47.05          108.2          57.71
    0.3111              -28.36           37.1          69.06          37.27         -10.77         0.6687          162.8           69.2         -47.05          108.2          57.73
    0.3555              -28.36           37.1          69.06          37.27         -10.77         0.6669          162.7           69.2         -47.05          108.2          57.74
       0.4              -28.35           37.1          69.05          37.27         -10.77         0.6651          162.7          69.19         -47.06          108.2          57.76
    0.4444              -28.35           37.1          69.04          37.28         -10.77         0.6631          162.6          69.19         -47.06          108.1          57.77
    0.4888              -28.35          37.09          69.03          37.28         -10.77          0.661          162.6          69.18         -47.06          108.1          57.79
    0.5333              -28.35          37.09          69.02          37.29         -10.77         0.6587          162.5          69.17         -47.06          108.1          57.81
    0.5777              -28.34          37.09          69.01          37.29         -10.77         0.6562          162.4          69.17         -47.07          108.1          57.83
    0.6222              -28.34          37.09          68.99           37.3         -10.77         0.6535          162.4          69.16         -47.07          108.0          57.85
    0.6666              -28.34          37.08          68.98          37.31         -10.77         0.6506          162.3          69.15         -47.08          108.0          57.88
     0.711              -28.33          37.08          68.97          37.31         -10.77         0.6475          162.2          69.14         -47.08          108.0           57.9
    0.7555              -28.33          37.08          68.95          37.32         -10.77          0.644          162.1          69.13         -47.08          107.9          57.93
    0.7999              -28.32          37.07          68.93          37.33         -10.77         0.6403          162.0          69.12         -47.09          107.9          57.96
    0.8444              -28.32          37.07          68.92          37.34         -10.77         0.6362          161.9           69.1          -47.1          107.8           58.0
    0.8888              -28.31          37.06          68.89          37.35         -10.77         0.6316          161.8          69.09          -47.1          107.8          58.03
